<svg version="1" xmlns="http://www.w3.org/2000/svg" width="682.667" height="682.667" viewBox="0 0 512.000000 512.000000"><path d="M59.1 171.6v169.9l98 83.5c53.9 45.9 98.3 83.6 98.7 83.8.5.1 9.4-7.1 19.8-16 22-18.9 168.2-143.9 173.5-148.3l3.6-3 .6-169.8c.6-144 .4-169.8-.7-169.4-1.2.5-185.6 158.9-193.8 166.4l-2.6 2.5-96.9-83.4C106 42 61.7 3.9 60.7 3.1c-1.6-1.3-1.7 7.8-1.6 168.5zm66.4-53.7c43 73.9 63.5 109.9 62.9 110.7C187.3 230.1 62.2 338 61.5 338c-.3 0-.5-74.3-.5-165.2 0-90.8.2-164.9.4-164.7.2.2 29 49.6 64.1 109.8zM443.3 16.2c-2 3.5-30.2 51.7-62.6 107.3-32.3 55.5-59.1 101.3-59.5 101.7-.4.4-12.9-9.7-27.8-22.5-14.8-12.7-28.9-24.8-31.2-26.8l-4.3-3.7 94.3-81.1C404 46.5 446.5 10 446.7 10c.1 0-1.4 2.8-3.4 6.2zM288.9 201.6l31 26.7-2.7 4.7c-1.5 2.5-15.7 27-31.7 54.3-25.7 44.3-29.1 49.6-30.3 48-1.4-2-62.7-106.4-62.7-106.8 0-1.2 63.3-54.4 64.2-54.1.7.3 15.1 12.5 32.2 27.2zm29.6 252.2c-.6.5-13.8 11.8-29.5 25.2-15.7 13.4-29.5 25.2-30.7 26.3l-2.2 1.9-30.8-26.3c-16.9-14.4-31.2-26.6-31.7-27.1-.6-.4 27.5-.8 62.4-.8s63 .4 62.5.8z"/></svg>